<?xml version="1.0" encoding="utf-8"?>
<!-- Generator: Adobe Illustrator 19.1.1, SVG Export Plug-In . SVG Version: 6.00 Build 0)  -->
<svg version="1.1" id="Layer_1" xmlns="http://www.w3.org/2000/svg" xmlns:xlink="http://www.w3.org/1999/xlink" x="0px" y="0px"
	 viewBox="0 0 512 512" style="enable-background:new 0 0 512 512;" xml:space="preserve">
<style type="text/css">
	.st0{fill:#F8971D;}
	.st1{fill:#FFFFFF;}
</style>
<g id="Layer_2">
</g>
<g>
	<path class="st0" d="M2.9,477.7C87.5,312.5,19.5,164.5,50.2,3c125.3,23.5,254,321.5,269,474.5C178.1,498.7,85.7,459.6,2.9,477.7z"
		/>
	<g>
		<path class="st1" d="M5.1,478.9c29.4-57.8,42.7-120.9,44.5-185.5c1.8-61.3-5.1-122.4-5.5-183.7C43.9,74.2,46,38.6,52.6,3.6
			c-1,0.6-2.1,1.2-3.1,1.7c28,5.4,52.2,22.8,72.5,42.1c26.6,25.1,48.5,55,67.9,85.8c44.3,70.2,77.7,148.1,101.7,227.5
			c11.5,38,21.1,77.1,25,116.7c0.6-0.8,1.2-1.6,1.8-2.4c-48.5,7.2-97.4,7.7-146.3,4.1c-38-2.8-75.9-8.3-114-8.8
			c-18.8-0.2-37.6,1-56,5c-3.1,0.7-1.8,5.5,1.3,4.8c34.3-7.4,69.8-4.9,104.5-1.8c42,3.8,83.9,8.4,126.2,8.1
			c28.7-0.2,57.3-2.4,85.6-6.6c1-0.1,1.9-1.4,1.8-2.4c-3.5-35.1-11.4-69.7-21-103.6c-11.4-40.2-25.6-79.6-41.9-118
			c-16.7-39.3-35.7-77.7-57.8-114.2c-19.5-32.2-41.5-63.5-67.9-90.4c-22.5-22.8-50-44.5-82.2-50.7c-1.2-0.2-2.8,0.3-3.1,1.7
			c-11.4,60.5-9.2,122-6,183.1c3.2,61.2,6.4,123-4.8,183.7C30.2,406.5,18,442.6,0.7,476.4C-0.7,479.3,3.6,481.8,5.1,478.9z"/>
	</g>
</g>
<g>
	<path class="st0" d="M97.3,470.3C265.5,366.5,215.7,148.5,333.1,3c40.6,145.5,128.4,252.9,178,495.8
		C372.3,430,299.1,460,97.3,470.3z"/>
	<g>
		<path class="st1" d="M98.6,472.4c30-18.6,55.9-42.8,76.2-71.7c19.3-27.4,33.2-58.2,44.3-89.8c23-65.6,34.3-134.7,58.2-200.1
			c13.9-38,32.2-74.5,57.6-106.1c-1.4-0.4-2.8-0.7-4.2-1.1c15.8,56.3,39.7,109.7,63.8,162.8c28.4,62.6,55.8,125.5,77,191
			c15.1,46.6,27.4,94,37.2,141.9c1.2-0.9,2.4-1.9,3.7-2.8c-45.4-22.4-93.2-38.3-143.8-42.7c-51.2-4.5-102.8,1-153.8,5.3
			c-39.1,3.3-78.2,6.4-117.4,8.5c-3.2,0.2-3.2,5.2,0,5c62.8-3.2,125.2-10.2,187.9-13.9c47.1-2.8,94.4-2,140.3,9.9
			c29.2,7.5,57.2,18.9,84.2,32.2c2,1,4.1-0.6,3.7-2.8c-16.3-79.7-39.9-157.5-70.5-232.9c-23.4-57.7-51-113.5-74.9-170.9
			c-12.5-30-23.8-60.6-32.6-92c-0.5-1.7-3-2.6-4.2-1.1c-44.4,55.3-66.1,123.1-83.9,190.7c-17.3,65.5-31.7,133.9-67.7,192.2
			c-21.1,34.2-49.5,62.7-83.6,83.9C93.4,469.8,95.9,474.1,98.6,472.4z"/>
	</g>
</g>
<g>
	<path class="st0" d="M238.6,2.2c45,158.8,128.9,278,135,476.4c-105.3-0.4-185.8,70.8-316-1.1C132.5,312.1,156.4,119.9,238.6,2.2z"
		/>
	<g>
		<path class="st1" d="M236.2,2.8c16.9,59.6,40.6,116.8,63.3,174.3c23.2,58.8,44.6,118.3,57.4,180.3c8.2,39.9,12.9,80.5,14.2,121.2
			c0.8-0.8,1.7-1.7,2.5-2.5c-39.3,0-77.2,10.2-115.2,19.1c-39.3,9.2-79.3,15.7-119.5,9c-28.2-4.7-55-15.2-80-28.9
			c0.3,1.1,0.6,2.3,0.9,3.4c29-64.2,50.2-131.5,70.6-198.8c19.3-63.6,37.5-128,63.5-189.2c12.9-30.5,28-60.1,46.9-87.3
			c1.8-2.6-2.5-5.2-4.3-2.5c-34.7,49.9-56.7,107.6-75.8,164.8c-21.8,65.5-39.9,132.1-61.7,197.6c-12.8,38.3-26.8,76.1-43.4,112.9
			c-0.5,1.2-0.4,2.7,0.9,3.4c41.2,22.6,86.3,34.9,133.4,32c39.4-2.4,77.2-14.1,115.5-22.3c22.5-4.8,45.2-8.3,68.3-8.2
			c1.3,0,2.5-1.1,2.5-2.5c-2.2-69.2-14.8-137.3-35.7-203.2c-18.6-58.9-43.1-115.6-65.2-173.3C262.6,69,250.7,35.6,241,1.5
			C240.2-1.6,235.3-0.3,236.2,2.8z"/>
	</g>
</g>
</svg>
